<svg width="1600" height="805" viewBox="0 0 1600 805" fill="none" xmlns="http://www.w3.org/2000/svg">
<path d="M147.645 781.954L65.3069 805.655L86.1531 406.116L185.172 377.613L415.068 704.975L332.729 728.676L160.988 474.504L158.149 475.322L147.645 781.954ZM101.379 640.585L295.868 584.6L313.133 644.58L118.644 700.564L101.379 640.585ZM354.197 328.959L448.957 301.682L619.328 517.048L623.586 515.822L653.383 242.837L748.143 215.559L852.757 578.984L778.226 600.438L710.136 363.893L707.119 364.761L680.648 626.605L629.897 641.214L468.011 432.628L464.994 433.497L533.34 670.929L458.81 692.383L354.197 328.959ZM877.108 178.436L1044.43 429.269L1047.8 428.299L1056.34 126.845L1141.51 102.326L1120.84 501.814L1021.83 530.317L791.752 203.006L877.108 178.436ZM1247.19 71.9075L1258.22 110.237C1261.35 121.121 1262.42 132.855 1261.44 145.438C1260.53 157.868 1258.03 170.116 1253.95 182.181C1249.83 194.127 1244.63 204.782 1238.36 214.146L1199.33 204.052C1202.56 193.003 1204.78 181.154 1206.01 168.502C1207.35 155.817 1205.86 141.963 1201.54 126.938L1190.4 88.2533L1247.19 71.9075ZM1538.69 170.546L1470.71 194.726C1467.83 189.152 1463.75 184.56 1458.48 180.952C1453.18 177.225 1446.93 174.862 1439.72 173.861C1432.6 172.709 1424.67 173.392 1415.91 175.912C1404.2 179.284 1395.04 184.612 1388.42 191.896C1381.77 199.062 1379.62 206.726 1381.97 214.889C1383.85 221.396 1388.03 226.148 1394.53 229.145C1401.03 232.142 1411 233.179 1424.44 232.256L1476.64 227.993C1504.7 225.807 1526.98 228.875 1543.47 237.195C1559.95 245.516 1571.02 259.496 1576.67 279.134C1581.82 296.998 1581.06 314.188 1574.42 330.706C1567.89 347.189 1556.61 361.838 1540.57 374.654C1524.61 387.317 1504.8 397.054 1481.14 403.865C1445.06 414.251 1414.15 415.014 1388.41 406.154C1362.76 397.141 1344.35 380.149 1333.2 355.178L1406.42 329.871C1411.84 340.226 1419.7 347.059 1430 350.37C1440.27 353.562 1452.15 353.218 1465.64 349.336C1478.89 345.522 1488.8 339.913 1495.38 332.511C1502.05 324.955 1504.27 317.08 1502.03 308.883C1499.94 302.055 1495.42 297.27 1488.49 294.527C1481.51 291.667 1471.77 290.756 1459.26 291.795L1409.35 295.978C1381.2 298.316 1358.73 294.793 1341.93 285.407C1325.26 275.987 1313.99 261.103 1308.14 240.755C1303.1 223.247 1303.49 206.801 1309.31 191.418C1315.25 176.002 1325.86 162.377 1341.16 150.543C1356.58 138.676 1375.94 129.388 1399.24 122.679C1433.67 112.769 1462.85 112.247 1486.8 121.111C1510.86 129.941 1528.16 146.419 1538.69 170.546Z" fill="#DDDDDD" fill-opacity="0.01"/>
</svg>
