<svg width="1600" height="790" viewBox="0 0 1600 790" fill="none" xmlns="http://www.w3.org/2000/svg">
<path d="M65.3155 785.297L-27.2271 463.806L185.635 402.533L201.767 458.574L56.8761 500.282L78.9273 576.887L209.69 539.246L225.822 595.287L95.059 632.928L133.287 765.732L65.3155 785.297ZM323.898 710.863L231.355 389.372L299.327 369.806L375.737 635.256L513.564 595.582L529.696 651.623L323.898 710.863ZM422.319 334.403L498.453 312.487L611.617 429.839L614.756 428.936L648.21 269.379L724.345 247.463L666.909 489.057L699.625 602.709L632.124 622.139L599.409 508.487L422.319 334.403ZM854.013 558.267L761.47 236.776L978.1 174.418L994.231 230.46L845.573 273.252L867.624 349.857L1005.14 310.273L1021.27 366.314L883.756 405.898L905.852 482.66L1055.14 439.688L1071.27 495.729L854.013 558.267ZM1124.68 480.354L1032.14 158.863L1158.98 122.352C1183.26 115.363 1205.23 113.741 1224.89 117.487C1244.63 121.098 1261.27 129.509 1274.82 142.721C1288.44 155.798 1298.31 172.959 1304.43 194.203C1310.58 215.552 1311.26 235.244 1306.48 253.279C1301.66 271.209 1291.7 286.771 1276.57 299.965C1261.55 313.128 1241.69 323.265 1216.99 330.374L1132.06 354.82L1116.34 300.192L1190.27 278.909C1203.25 275.173 1213.52 270.291 1221.08 264.263C1228.63 258.235 1233.48 251.06 1235.62 242.738C1237.86 234.387 1237.46 224.926 1234.42 214.356C1231.34 203.682 1226.61 195.299 1220.21 189.209C1213.91 183.088 1205.88 179.394 1196.11 178.127C1186.41 176.725 1175.03 177.907 1161.94 181.673L1116.11 194.867L1192.65 460.788L1124.68 480.354ZM1256.19 284.074L1378.2 407.377L1303.17 428.977L1182.88 305.176L1256.19 284.074ZM1523.25 117.615C1518.35 105.314 1510.13 97.0279 1498.59 92.7575C1487.05 88.4872 1473.11 88.7017 1456.79 93.4011C1445.69 96.5943 1436.78 100.86 1430.04 106.199C1423.28 111.433 1418.64 117.358 1416.12 123.975C1413.71 130.562 1413.5 137.309 1415.49 144.216C1416.94 150.032 1419.59 154.709 1423.44 158.246C1427.39 161.754 1432.18 164.399 1437.79 166.183C1443.37 167.863 1449.58 168.965 1456.42 169.49C1463.23 169.91 1470.36 169.896 1477.83 169.447L1508.7 168.04C1523.63 167.143 1537.7 167.624 1550.93 169.482C1564.16 171.341 1576.16 174.855 1586.94 180.024C1597.72 185.194 1606.96 192.281 1614.65 201.286C1622.45 210.261 1628.33 221.431 1632.29 234.796C1637.85 254.501 1637.73 273.005 1631.95 290.309C1626.24 307.478 1615.21 322.72 1598.87 336.036C1582.61 349.217 1561.4 359.573 1535.23 367.104C1509.28 374.575 1485.53 377.105 1463.99 374.695C1442.54 372.254 1424.19 364.788 1408.92 352.298C1393.73 339.673 1382.54 321.872 1375.36 298.894L1441.14 279.961C1444.97 290.529 1450.65 298.641 1458.17 304.295C1465.76 309.815 1474.69 313.081 1484.96 314.092C1495.3 314.97 1506.33 313.721 1518.05 310.347C1529.56 307.033 1539.07 302.482 1546.58 296.693C1554.2 290.874 1559.51 284.304 1562.5 276.983C1565.49 269.663 1565.87 262.13 1563.64 254.386C1561.56 247.165 1557.67 241.713 1551.96 238.029C1546.36 234.315 1538.98 231.907 1529.83 230.803C1520.77 229.669 1509.98 229.376 1497.45 229.925L1459.91 231.21C1430.91 232.42 1406.54 228.272 1386.8 218.767C1367.07 209.262 1353.84 192.617 1347.1 168.831C1341.39 149.396 1341.68 130.899 1347.96 113.34C1354.34 95.7503 1365.57 80.2233 1381.63 66.7585C1397.7 53.2938 1417.46 43.1874 1440.9 36.4395C1464.76 29.5711 1486.76 27.6578 1506.9 30.6994C1527.15 33.711 1544.34 41.0592 1558.46 52.744C1572.59 64.4288 1582.57 79.8017 1588.4 98.8626L1523.25 117.615Z" fill="#DDDDDD" fill-opacity="0.01"/>
</svg>
